OpenSim_Sub10_CSBaseline_RCS.mot
version=1
nRows=44
nColumns=11
inDegrees=no
endheader
time	Top_Thigh	Med_Thigh	Bot_Thigh	Top_Shank	2nd_Top_Shank	2nd_Bot_Shank	Bot_Shank	BNOx	BNOy	BNOZ
22.77000000	2039.12456348	1980.01599784	1778.93022150	1312.74625837	1460.20254237	1286.62245171	1313.66180897	0	0	0
22.78000000	2043.07601526	1988.26913864	1790.45240485	1311.32546345	1462.23290733	1295.81814115	1312.78620586	0	0	0
22.79000000	2050.61955007	1996.08275839	1802.16918186	1310.31130904	1464.81586484	1304.22801642	1312.16782393	0	0	0
22.80000000	2063.53523875	2002.91817116	1813.17607784	1309.99408560	1468.03856948	1310.65106165	1312.01401947	0	0	0
22.81000000	2082.23660424	2008.57057240	1822.91000145	1310.49107998	1471.90133331	1314.49679817	1312.39380245	0	0	0
22.82000000	2104.82077600	2013.40110963	1831.38652993	1311.62632590	1476.25726422	1316.20965021	1313.14167627	0	0	0
22.83000000	2129.16050534	2017.82575151	1838.67729339	1313.19545103	1480.94521113	1316.33428820	1314.06942875	0	0	0
22.84000000	2153.12854356	2022.26046669	1844.85392196	1314.99408307	1485.80402297	1315.41538257	1314.98884771	0	0	0
22.85000000	2174.59764197	2027.12122383	1849.98804575	1316.81784968	1490.67254867	1313.99760373	1315.71172100	0	0	0
22.86000000	2191.45345311	2032.81925387	1854.15149434	1318.46343433	1495.39000969	1312.62284197	1316.05116669	0	0	0
22.87000000	2202.57980162	2039.39922976	1857.43152792	1319.80920730	1499.82445165	1311.61788695	1315.92322538	0	0	0
22.88000000	2208.55248318	2046.28448323	1859.94156273	1320.87200368	1503.89277902	1310.94491788	1315.41839845	0	0	0
22.89000000	2210.11118674	2052.83815957	1861.79754863	1321.68207099	1507.51662904	1310.53079584	1314.64408650	0	0	0
22.90000000	2207.99560126	2058.42340411	1863.11543546	1322.26965675	1510.61763892	1310.30238194	1313.70769009	0	0	0
22.91000000	2202.94541568	2062.40336215	1864.01117307	1322.66500849	1513.11744589	1310.18653726	1312.71660982	0	0	0
22.92000000	2195.70031894	2064.14117901	1864.60071130	1322.89837373	1514.93768718	1310.11012292	1311.77824626	0	0	0
22.93000000	2187	2063	1865	1323	1516	1310	1311	0	0	0
22.94000000	2177.48045665	2058.55383502	1865.25995089	1322.99570974	1516.25632433	1309.79907536	1310.46461950	0	0	0
22.95000000	2167.36292204	2051.22015237	1865.17132318	1322.89362511	1515.77981113	1309.51443890	1310.15624476	0	0	0
22.96000000	2156.76493817	2041.62728491	1864.45983793	1322.69744318	1514.67391411	1309.16922626	1310.03436367	0	0	0
22.97000000	2145.80404705	2030.40356552	1862.85121620	1322.41086103	1513.04208699	1308.78657311	1310.05846409	0	0	0
22.98000000	2134.59779068	2018.17732709	1860.07117908	1322.03757575	1510.98778348	1308.38961510	1310.18803393	0	0	0
22.99000000	2123.26371105	2005.57690250	1855.84544764	1321.58128440	1508.61445729	1308.00148788	1310.38256104	0	0	0
23	2111.91935017	1993.23062461	1849.89974294	1321.04568408	1506.02556214	1307.64532711	1310.60153333	0	0	0
23.01000000	2100.68225003	1981.76682631	1841.95978605	1320.43447185	1503.32455173	1307.34426843	1310.80443866	0	0	0
23.02000000	2089.66995264	1971.81384048	1831.75129805	1319.75134480	1500.61487978	1307.12144751	1310.95076493	0	0	0
23.03000000	2079	1964	1819	1319	1498	1307	1311	0	0	0
23.04000000	2068.78255101	1958.78074468	1803.69403902	1318.18580619	1495.57122476	1306.99741634	1310.92243892	0	0	0
23.05000000	2059.09823223	1955.91994209	1786.87126635	1317.32081871	1493.37130106	1307.10860615	1310.73160536	0	0	0
23.06000000	2050.02028710	1955.00856674	1769.83195929	1316.41876458	1491.43083456	1307.32283383	1310.45183013	0	0	0
23.07000000	2041.62195908	1955.63759312	1753.87639513	1315.49337081	1489.78043092	1307.62936378	1310.10744405	0	0	0
23.08000000	2033.97649162	1957.39799576	1740.30485117	1314.55836438	1488.45069579	1308.01746041	1309.72277795	0	0	0
23.09000000	2027.15712819	1959.88074915	1730.41760468	1313.62747232	1487.47223484	1308.47638812	1309.32216265	0	0	0
23.10000000	2021.23711223	1962.67682780	1725.51493296	1312.71442163	1486.87565371	1308.99541131	1308.92992895	0	0	0
23.11000000	2016.28968721	1965.37720621	1726.89711331	1311.83293931	1486.69155807	1309.56379440	1308.57040770	0	0	0
23.12000000	2012.38809657	1967.57285890	1735.86442300	1310.99675237	1486.95055358	1310.17080178	1308.26792970	0	0	0
23.13000000	2009.60558377	1968.85476036	1753.71713935	1310.21958781	1487.68324589	1310.80569785	1308.04682577	0	0	0
23.14000000	2008.01128224	1968.86120716	1781.36264810	1309.51557842	1488.90850143	1311.45672052	1307.92895474	0	0	0
23.15000000	2007.63189518	1967.71903059	1815.65227416	1308.90304599	1490.52399547	1312.10151040	1307.91065536	0	0	0
23.16000000	2008.46909418	1965.84327119	1851.04448412	1308.40278362	1492.35590692	1312.71145627	1307.97321095	0	0	0
23.17000000	2010.52422735	1963.65269458	1881.96681727	1308.03561634	1494.22949066	1313.25786612	1308.09771022	0	0	0
23.18000000	2013.79864276	1961.56606637	1902.84681289	1307.82236920	1495.97000155	1313.71204793	1308.26524189	0	0	0
23.19000000	2018.29368849	1960.00215217	1908.11201027	1307.78386723	1497.40269445	1314.04530969	1308.45689468	0	0	0
23.20000000	2024.01071263	1959.37971760	1892.18994870	1307.94093548	1498.35282421	1314.22895938	1308.65375730	0	0	0
